<svg width="16" height="20" viewBox="0 0 24 24" fill="none" xmlns="http://www.w3.org/2000/svg">
<path fill-rule="evenodd" clip-rule="evenodd" d="M7.65933 4.0541C7.48424 4.14653 7.33699 4.29719 7.26081 4.46179C7.19741 4.59877 7.19114 4.72668 7.19039 5.89958L7.18956 7.18702H5.91057C4.8393 7.18702 4.60889 7.19649 4.49186 7.24539C4.31545 7.31911 4.15907 7.46661 4.06647 7.64666C3.99623 7.7833 3.99465 7.93422 4.00416 13.6449L4.01389 19.503L4.10785 19.6419C4.15952 19.7182 4.26798 19.8269 4.3489 19.8834L4.49603 19.9862L10.3056 19.9973C14.4173 20.0051 16.1566 19.9964 16.2568 19.9674C16.4422 19.9137 16.6549 19.7238 16.7404 19.5355C16.8023 19.3992 16.8089 19.2613 16.8097 18.0973L16.8105 16.8099L18.0977 16.8091C19.2614 16.8083 19.3993 16.8017 19.5355 16.7398C19.7238 16.6542 19.9137 16.4415 19.9674 16.2561C19.9964 16.1559 20.0051 14.4164 19.9973 10.3042L19.9862 4.49385L19.8922 4.35504C19.8406 4.27869 19.7321 4.16998 19.6512 4.11349L19.504 4.01072L13.6381 4.00264C8.34821 3.99534 7.76099 4.00038 7.65933 4.0541ZM18.4173 10.3915L18.4268 15.1935H13.6162H8.80558V10.382V5.57037L13.6067 5.57992L18.4077 5.58947L18.4173 10.3915ZM11.6994 7.24693C11.4058 7.37414 11.2108 7.66519 11.2108 7.97609C11.2108 8.30782 11.3533 8.54771 11.643 8.70363C11.7896 8.78257 11.8354 8.78483 13.4925 8.79539L15.1916 8.80625L15.2025 10.5057C15.213 12.1632 15.2153 12.2089 15.2942 12.3556C15.3387 12.4382 15.415 12.5432 15.4638 12.5887C15.7642 12.8689 16.3053 12.8451 16.5924 12.5388C16.8143 12.3022 16.8105 12.3456 16.8105 10.0212C16.8105 8.44472 16.7985 7.85092 16.7643 7.73642C16.7047 7.53671 16.4609 7.29291 16.2612 7.23325C16.1464 7.19893 15.5551 7.18739 13.9687 7.18848C12.1436 7.18976 11.8117 7.19829 11.6994 7.24693ZM7.18978 12.4589C7.1899 14.9382 7.2029 16.1611 7.23018 16.2592C7.28287 16.4491 7.5402 16.7043 7.73886 16.7637C7.85664 16.7989 8.76447 16.8099 11.544 16.8099H15.1945V17.6182V18.4265L10.3934 18.417L5.59233 18.4074L5.58278 13.6054L5.57324 8.80336H6.3814H7.18956L7.18978 12.4589Z" fill="#3393A1"/>
</svg>