<svg width="16" height="20" viewBox="0 0 20 20" fill="none" xmlns="http://www.w3.org/2000/svg">
<path d="M10.8337 2.5H8.16699C6.76686 2.5 6.0668 2.5 5.53202 2.77248C5.06161 3.01217 4.67916 3.39462 4.43948 3.86502C4.16699 4.3998 4.16699 5.09987 4.16699 6.5V13.5C4.16699 14.9001 4.16699 15.6002 4.43948 16.135C4.67916 16.6054 5.06161 16.9878 5.53202 17.2275C6.0668 17.5 6.76686 17.5 8.16699 17.5H9.58366M10.8337 2.5L15.8337 7.5M10.8337 2.5V4.83333C10.8337 5.76675 10.8337 6.23346 11.0153 6.58998C11.1751 6.90359 11.4301 7.15856 11.7437 7.31834C12.1002 7.5 12.5669 7.5 13.5003 7.5H15.8337M15.8337 7.5V10M12.917 15.4167H17.0837M15.0003 13.3333V17.5" stroke="#3393A1" stroke-width="2" stroke-linecap="round" stroke-linejoin="round"/>
</svg>