<svg width="24" height="24" viewBox="0 0 24 24" fill="none" xmlns="http://www.w3.org/2000/svg">
<path d="M17.9996 6L17.1988 18.0129C17.1286 19.065 17.0936 19.5911 16.8663 19.99C16.6662 20.3412 16.3645 20.6235 16.0007 20.7998C15.5876 21 15.0604 21 14.0059 21H9.9934C8.9389 21 8.41165 21 7.99853 20.7998C7.63481 20.6235 7.33303 20.3412 7.13296 19.99C6.90571 19.5911 6.87064 19.065 6.80049 18.0129L5.99963 6M3.99963 6H19.9996M15.9996 6L15.729 5.18807C15.4667 4.40125 15.3356 4.00784 15.0923 3.71698C14.8776 3.46013 14.6017 3.26132 14.2901 3.13878C13.9373 3 13.5226 3 12.6932 3H11.3061C10.4767 3 10.062 3 9.70914 3.13878C9.39755 3.26132 9.12171 3.46013 8.90692 3.71698C8.66369 4.00784 8.53255 4.40125 8.27028 5.18807L7.99963 6M13.9996 10V17M9.99963 10V17" stroke="white" stroke-width="2" stroke-linecap="round" stroke-linejoin="round"/>
</svg>
