<svg width="16" height="20" viewBox="0 0 20 20" fill="none" xmlns="http://www.w3.org/2000/svg">
<path d="M14.9997 5L14.3323 15.0107C14.2738 15.8875 14.2446 16.3259 14.0552 16.6583C13.8885 16.951 13.637 17.1863 13.3339 17.3332C12.9897 17.5 12.5503 17.5 11.6715 17.5H8.32782C7.44907 17.5 7.00969 17.5 6.66542 17.3332C6.36232 17.1863 6.11083 16.951 5.94411 16.6583C5.75474 16.3259 5.72551 15.8875 5.66706 15.0107L4.99967 5M3.33301 5H16.6663M13.333 5L13.1075 4.32339C12.8889 3.66771 12.7796 3.33987 12.5769 3.09748C12.3979 2.88345 12.1681 2.71777 11.9084 2.61565C11.6144 2.5 11.2688 2.5 10.5776 2.5H9.4217C8.73055 2.5 8.38497 2.5 8.09093 2.61565C7.83127 2.71777 7.60141 2.88345 7.42241 3.09748C7.21972 3.33987 7.11044 3.66771 6.89188 4.32339L6.66634 5M11.6663 8.33333V14.1667M8.33301 8.33333V14.1667" stroke="#3393A1" stroke-width="2" stroke-linecap="round" stroke-linejoin="round"/>
</svg>