<svg width="21" height="20" viewBox="0 0 21 20" fill="none" xmlns="http://www.w3.org/2000/svg">
<path d="M15.4997 5L14.8323 15.0107C14.7738 15.8875 14.7446 16.3259 14.5552 16.6583C14.3885 16.951 14.137 17.1863 13.8339 17.3332C13.4897 17.5 13.0503 17.5 12.1715 17.5H8.82782C7.94907 17.5 7.50969 17.5 7.16542 17.3332C6.86232 17.1863 6.61083 16.951 6.44411 16.6583C6.25474 16.3259 6.22551 15.8875 6.16706 15.0107L5.49967 5M3.83301 5H17.1663M13.833 5L13.6075 4.32339C13.3889 3.66771 13.2796 3.33987 13.0769 3.09748C12.8979 2.88345 12.6681 2.71777 12.4084 2.61565C12.1144 2.5 11.7688 2.5 11.0776 2.5H9.9217C9.23055 2.5 8.88497 2.5 8.59093 2.61565C8.33127 2.71777 8.10141 2.88345 7.92241 3.09748C7.71972 3.33987 7.61044 3.66771 7.39188 4.32339L7.16634 5M12.1663 8.33333V14.1667M8.83301 8.33333V14.1667" stroke="#3393A1" stroke-width="2" stroke-linecap="round" stroke-linejoin="round"/>
</svg>
