<svg width="24" height="43" viewBox="0 0 24 43" fill="none" xmlns="http://www.w3.org/2000/svg">
<path d="M10.2688 3.0361C10.2789 2.93344 10.2601 2.82998 10.2147 2.73756C10.1693 2.64513 10.0991 2.56745 10.0121 2.5134C9.85292 2.45086 9.68195 2.42479 9.51157 2.43709H8.99392V3.65671H9.68412C9.76332 3.65884 9.84212 3.64461 9.91568 3.6149C9.98925 3.58519 10.056 3.54062 10.1119 3.48392C10.1658 3.42276 10.2071 3.35145 10.2335 3.2741C10.2599 3.19675 10.271 3.11489 10.2659 3.03322L10.2688 3.0361ZM10.4913 4.2658L11.3683 5.87565C11.38 5.89596 11.3862 5.91907 11.3862 5.9426C11.3862 5.96614 11.38 5.98925 11.3683 6.00956C11.3582 6.03154 11.3418 6.04991 11.3211 6.06226C11.3005 6.0746 11.2767 6.08032 11.2527 6.07868H10.5968C10.5709 6.0813 10.5448 6.07544 10.5225 6.06195C10.5001 6.04847 10.4827 6.02808 10.4727 6.0038L9.64277 4.43571H8.98537V5.9462C8.98673 5.96438 8.9844 5.98264 8.97853 5.99988C8.97265 6.01711 8.96336 6.03295 8.95121 6.04644C8.93906 6.05992 8.92431 6.07075 8.90787 6.07827C8.89143 6.0858 8.87364 6.08986 8.8556 6.0902H8.27378C8.25574 6.09179 8.23757 6.08959 8.22041 6.08374C8.20325 6.07789 8.18747 6.06851 8.17407 6.0562C8.16067 6.0439 8.14995 6.02892 8.14256 6.01222C8.13518 5.99552 8.13131 5.97745 8.13118 5.95916V1.7992C8.12842 1.76389 8.13963 1.72891 8.16234 1.70193C8.18506 1.67494 8.21744 1.65814 8.25239 1.6552H9.52726C9.80216 1.64302 10.0771 1.67857 10.3401 1.76032C10.5773 1.84789 10.7783 2.01381 10.9105 2.23118C11.0517 2.46509 11.124 2.73483 11.1187 3.00874C11.1229 3.26092 11.0599 3.5096 10.9362 3.72871C10.8225 3.93267 10.6505 4.09727 10.4428 4.201L10.4827 4.273L10.4913 4.2658ZM9.63564 0.694769C9.21502 0.69337 8.79859 0.779133 8.41211 0.946756C7.84267 1.19309 7.35821 1.60414 7.01979 2.12809C6.68137 2.65204 6.50414 3.26543 6.51045 3.89093C6.51677 4.51643 6.70634 5.12605 7.05527 5.64292C7.40419 6.15979 7.89686 6.56078 8.47115 6.79534C9.04544 7.0299 9.67565 7.08753 10.2823 6.96097C10.889 6.8344 11.445 6.5293 11.8802 6.08413C12.3154 5.63896 12.6104 5.07365 12.7279 4.45947C12.8454 3.84529 12.7801 3.20973 12.5404 2.63292C12.3009 2.05602 11.8971 1.56396 11.3802 1.21915C10.8632 0.874348 10.2566 0.692337 9.63706 0.696208L9.63564 0.694769ZM13.4702 3.86262C13.4678 4.62315 13.2446 5.36629 12.8282 6C12.4117 6.63371 11.8203 7.13016 11.1273 7.42789C10.5451 7.67611 9.91124 7.77499 9.28208 7.71572C8.65293 7.65646 8.04808 7.44088 7.52148 7.08822C6.99489 6.73557 6.56291 6.25679 6.26408 5.6946C5.96526 5.1324 5.80887 4.50427 5.80887 3.86622C5.80887 3.22817 5.96526 2.60004 6.26408 2.03785C6.56291 1.47565 6.99489 0.996876 7.52148 0.644218C8.04808 0.29156 8.65293 0.0759843 9.28208 0.0167165C9.91124 -0.0425512 10.5451 0.0563329 11.1273 0.304548C11.8202 0.601238 12.4119 1.09652 12.8291 1.72916C13.2463 2.36179 13.4706 3.10402 13.4745 3.86406L13.4702 3.86262Z" fill="#26009C"/>
<path d="M7.68628 10.9759H3.7569e-06V18.7386H7.68628V10.9759Z" fill="#1F009E"/>
<path d="M15.3512 18.7386H7.66346V26.5012H15.3512V18.7386Z" fill="#1F009E"/>
<path d="M24 22.6206H16.3123V30.3833H24V22.6206Z" fill="url(#paint0_linear_4213_20289)"/>
<path d="M7.68627 35.2344H0V43H7.68627V35.2344Z" fill="#4DB151"/>
<path d="M15.3512 27.4718H7.66346V35.2344H15.3512V27.4718Z" fill="#4DB151"/>
<defs>
<linearGradient id="paint0_linear_4213_20289" x1="9.17675" y1="-3.38794" x2="9.17675" y2="45.1214" gradientUnits="userSpaceOnUse">
<stop stop-color="#171891"/>
<stop offset="1" stop-color="#4FA94E"/>
</linearGradient>
</defs>
</svg>
