<svg width="24" height="25" viewBox="0 0 24 25" fill="none" xmlns="http://www.w3.org/2000/svg">
<path fill-rule="evenodd" clip-rule="evenodd" d="M7.65933 4.3246C7.48424 4.41704 7.33699 4.56769 7.26081 4.7323C7.19741 4.86927 7.19114 4.99719 7.19039 6.17009L7.18956 7.45752H5.91057C4.8393 7.45752 4.60889 7.467 4.49186 7.5159C4.31545 7.58961 4.15907 7.73711 4.06647 7.91717C3.99623 8.0538 3.99465 8.20473 4.00416 13.9154L4.01389 19.7736L4.10785 19.9124C4.15952 19.9887 4.26798 20.0974 4.3489 20.1539L4.49603 20.2567L10.3056 20.2678C14.4173 20.2756 16.1566 20.2669 16.2568 20.2379C16.4422 20.1842 16.6549 19.9943 16.7404 19.806C16.8023 19.6697 16.8089 19.5318 16.8097 18.3678L16.8105 17.0804L18.0977 17.0796C19.2614 17.0788 19.3993 17.0722 19.5355 17.0103C19.7238 16.9247 19.9137 16.712 19.9674 16.5266C19.9964 16.4264 20.0051 14.6869 19.9973 10.5747L19.9862 4.76436L19.8922 4.62554C19.8406 4.5492 19.7321 4.44049 19.6512 4.38399L19.504 4.28123L13.6381 4.27314C8.34821 4.26585 7.76099 4.27089 7.65933 4.3246ZM18.4173 10.662L18.4268 15.4641H13.6162H8.80558V10.6525V5.84088L13.6067 5.85043L18.4077 5.85998L18.4173 10.662ZM11.6994 7.51744C11.4058 7.64464 11.2108 7.9357 11.2108 8.2466C11.2108 8.57833 11.3533 8.81822 11.643 8.97414C11.7896 9.05308 11.8354 9.05533 13.4925 9.0659L15.1916 9.07676L15.2025 10.7762C15.213 12.4337 15.2153 12.4794 15.2942 12.6261C15.3387 12.7088 15.415 12.8137 15.4638 12.8592C15.7642 13.1395 16.3053 13.1156 16.5924 12.8093C16.8143 12.5727 16.8105 12.6161 16.8105 10.2917C16.8105 8.71523 16.7985 8.12143 16.7643 8.00693C16.7047 7.80722 16.4609 7.56341 16.2612 7.50376C16.1464 7.46944 15.5551 7.4579 13.9687 7.45899C12.1436 7.46027 11.8117 7.4688 11.6994 7.51744ZM7.18978 12.7294C7.1899 15.2087 7.2029 16.4316 7.23018 16.5297C7.28287 16.7197 7.5402 16.9748 7.73886 17.0342C7.85664 17.0694 8.76447 17.0804 11.544 17.0804H15.1945V17.8887V18.697L10.3934 18.6875L5.59233 18.6779L5.58278 13.8759L5.57324 9.07387H6.3814H7.18956L7.18978 12.7294Z" fill="#3393A1"/>
</svg>
