<svg width="24" height="24" viewBox="0 0 24 24" fill="none" xmlns="http://www.w3.org/2000/svg">
<path d="M19.175 11L15.3 7.12505C15.1 6.92505 15 6.68772 15 6.41305C15 6.13838 15.1 5.90072 15.3 5.70005C15.5 5.51672 15.7377 5.42505 16.013 5.42505C16.2883 5.42505 16.5173 5.51672 16.7 5.70005L21.3 10.3C21.4 10.4 21.471 10.5084 21.513 10.625C21.555 10.7417 21.5757 10.8667 21.575 11C21.5743 11.1334 21.5537 11.2584 21.513 11.375C21.4723 11.4917 21.4013 11.6 21.3 11.7L16.7 16.3C16.5 16.5 16.2667 16.596 16 16.588C15.7333 16.58 15.5 16.484 15.3 16.3C15.1 16.1 14.996 15.8667 14.988 15.6C14.98 15.3334 15.0757 15.1 15.275 14.9L19.175 11ZM13.175 12H7C6.16667 12 5.45833 12.2917 4.875 12.875C4.29167 13.4584 4 14.1667 4 15V18C4 18.2834 3.904 18.521 3.712 18.713C3.52 18.905 3.28267 19.0007 3 19C2.71733 18.9994 2.48 18.9034 2.288 18.712C2.096 18.5207 2 18.2834 2 18V15C2 13.6167 2.48767 12.4377 3.463 11.463C4.43833 10.4884 5.61733 10.0007 7 10H13.175L10.3 7.12505C10.1 6.92505 10 6.68772 10 6.41305C10 6.13838 10.1 5.90072 10.3 5.70005C10.5 5.51672 10.7377 5.42505 11.013 5.42505C11.2883 5.42505 11.5173 5.51672 11.7 5.70005L16.3 10.3C16.4 10.4 16.471 10.5084 16.513 10.625C16.555 10.7417 16.5757 10.8667 16.575 11C16.5743 11.1334 16.5537 11.2584 16.513 11.375C16.4723 11.4917 16.4013 11.6 16.3 11.7L11.7 16.3C11.5 16.5 11.2667 16.596 11 16.588C10.7333 16.58 10.5 16.484 10.3 16.3C10.1 16.1 9.996 15.8667 9.988 15.6C9.98 15.3334 10.0757 15.1 10.275 14.9L13.175 12Z" fill="white"/>
</svg>
