<svg width="25" height="24" viewBox="0 0 25 24" fill="none" xmlns="http://www.w3.org/2000/svg">
<path d="M19.7523 21V15M21.75 17.0002L19.75 15.0002L17.75 17.0002M13.75 3H10.55C8.86984 3 8.02976 3 7.38803 3.32698C6.82354 3.6146 6.3646 4.07354 6.07698 4.63803C5.75 5.27976 5.75 6.11984 5.75 7.8V16.2C5.75 17.8802 5.75 18.7202 6.07698 19.362C6.3646 19.9265 6.82354 20.3854 7.38803 20.673C8.02976 21 8.86984 21 10.55 21H13.75M13.75 3L19.75 9M13.75 3V5.8C13.75 6.9201 13.75 7.48016 13.968 7.90798C14.1597 8.28431 14.4657 8.59027 14.842 8.78201C15.2698 9 15.8299 9 16.95 9H19.75M19.75 9V11M9.75 17H13.75M9.75 13H15.75M9.75 9H10.75" stroke="#3393A1" stroke-width="2" stroke-linecap="round" stroke-linejoin="round"/>
</svg>
