<svg width="50" height="42" viewBox="0 0 50 42" fill="none" xmlns="http://www.w3.org/2000/svg">
<path d="M0 42L9.58813 13.6525C10.3783 11.3165 13.4928 10.8785 14.8965 12.9061L23.3558 25.1248C24.1511 26.2736 25.8492 26.2736 26.6445 25.1248L35.1036 12.9061C36.5073 10.8785 39.6219 11.3165 40.412 13.6525L50.0002 42H43.0002L37.9869 27.7316C37.4132 26.0988 35.1771 25.916 34.3458 27.434L27.5757 39.7968C26.4491 41.8541 23.5035 41.8808 22.3397 39.8442L15.2439 27.4266C14.3824 25.9189 12.1407 26.15 11.605 27.8018L7.00015 42H0Z" fill="#26009C"/>
<path d="M33 8C33 12.4183 29.4183 16 25 16C20.5817 16 17 12.4183 17 8C17 3.58172 20.5817 0 25 0C29.4183 0 33 3.58172 33 8Z" fill="#4DB151"/>
</svg>
