<svg width="80" height="80" viewBox="0 0 80 80" fill="none" xmlns="http://www.w3.org/2000/svg">
<rect width="80" height="80" fill="#D5FDFC"/>
<path d="M15 61L24.5881 32.6525C25.3783 30.3165 28.4928 29.8785 29.8965 31.9061L38.3558 44.1248C39.1511 45.2736 40.8492 45.2736 41.6445 44.1248L50.1036 31.9061C51.5073 29.8785 54.6219 30.3165 55.412 32.6525L65.0002 61H58.0002L52.9869 46.7316C52.4132 45.0988 50.1771 44.916 49.3458 46.434L42.5757 58.7968C41.4491 60.8541 38.5035 60.8808 37.3397 58.8442L30.2439 46.4266C29.3824 44.9189 27.1407 45.15 26.605 46.8018L22.0002 61H15Z" fill="#26009C"/>
<path d="M48 27C48 31.4183 44.4183 35 40 35C35.5817 35 32 31.4183 32 27C32 22.5817 35.5817 19 40 19C44.4183 19 48 22.5817 48 27Z" fill="#4DB151"/>
</svg>
