<svg width="100" height="100" viewBox="0 0 100 100" fill="none" xmlns="http://www.w3.org/2000/svg">
<circle cx="50" cy="50" r="50" fill="#3393A1"/>
<g clip-path="url(#clip0_10247_19268)">
<path d="M35.3516 30.9141C34.0859 31.0234 32.8672 31.5312 32.0547 32.2891C30.8125 33.4453 30.1328 35.0781 30.0234 37.1641L29.9766 38.0469H35.0625H40.1484L40.1797 51.3828C40.2031 66.375 40.1484 65.1016 40.7969 66.3594C41.4297 67.5781 42.6719 68.5625 44.0625 68.9609C44.5469 69.0938 45.1016 69.1016 54.5312 69.1016H64.4922L65.1172 68.9219C67.5391 68.2422 69.2422 66.5234 69.8438 64.1875C69.9688 63.7031 70 63.3125 70 62.4062V61.25H68.75H67.5L67.4844 48.1016L67.4609 34.9609L67.2812 34.4531C66.5859 32.5078 64.9688 31.1953 62.9531 30.9375C62.3594 30.8672 36.1875 30.8359 35.3516 30.9141ZM36.8359 32.4375C38.4141 32.7734 39.7031 34.3359 40.0391 36.3047L40.0938 36.6406H35.7891C32.75 36.6406 31.4844 36.6172 31.4844 36.5547C31.4844 36.5078 31.5547 36.1875 31.6484 35.8359C32.3203 33.2031 34.3125 31.8984 36.8359 32.4375ZM55.0078 35.6719C55.1094 35.7969 55.1172 36.25 55.0312 36.9922L54.9844 37.3906L55.6406 37.6406C56.0312 37.7891 56.5 38.0547 56.8281 38.2969C57.125 38.5234 57.4062 38.7422 57.4609 38.7812C57.5156 38.8203 57.7891 38.6875 58.2266 38.3984C58.8203 38 58.9297 37.9531 59.0938 38.0312C59.3516 38.1484 60.2656 39.7812 60.1953 40C60.1641 40.1094 59.8984 40.2734 59.3984 40.5078C58.8047 40.7891 58.6641 40.8828 58.7031 40.9844C58.8516 41.3828 58.9219 42.3125 58.8438 42.8828C58.7969 43.2109 58.7344 43.5391 58.7109 43.6094C58.6719 43.7109 58.8047 43.8125 59.3672 44.0938C60.0859 44.4609 60.2734 44.6406 60.1797 44.8984C60.0938 45.125 59.375 46.3516 59.2422 46.5C59.0391 46.7188 58.8516 46.6719 58.1953 46.2109C57.8594 45.9766 57.5547 45.7812 57.5156 45.7812C57.4766 45.7812 57.3672 45.875 57.2578 45.9844C56.9531 46.3203 56.0938 46.8438 55.5234 47.0391C55.0078 47.2188 54.9922 47.2344 55.0312 47.4609C55.0547 47.5859 55.0781 47.9531 55.0859 48.2734C55.1016 48.7969 55.0859 48.8672 54.9219 49C54.7578 49.1328 54.625 49.1484 53.7656 49.125C52.5781 49.0938 52.5469 49.0703 52.6172 48.2422C52.6406 47.9453 52.6797 47.5859 52.7031 47.4531C52.7344 47.2266 52.7188 47.2031 52.4922 47.1562C52.0625 47.0703 51.1562 46.5859 50.6562 46.1797L50.1797 45.7891L49.5469 46.2188C49.1953 46.4531 48.8438 46.6406 48.7578 46.6406C48.5391 46.6406 48.4219 46.4922 47.9219 45.625C47.3516 44.6094 47.3594 44.5781 48.3047 44.1406L49.0312 43.7969L48.9219 43.2812C48.8203 42.7891 48.8359 41.7422 48.9531 41.1172C49 40.875 48.9922 40.8672 48.2734 40.4922C47.7109 40.2031 47.5312 40.0781 47.5156 39.9375C47.4688 39.6328 48.4922 37.9688 48.7188 37.9688C48.7891 37.9688 49.125 38.1641 49.4688 38.3984C49.8125 38.6328 50.125 38.8281 50.1719 38.8281C50.2109 38.8281 50.4141 38.6797 50.6172 38.4922C51.0391 38.125 51.6172 37.7891 52.2109 37.5781L52.6172 37.4297V36.6172C52.6172 36.0469 52.6484 35.7656 52.7266 35.6797C52.875 35.4922 54.8516 35.4844 55.0078 35.6719ZM61.1719 51.3672V52.0312H53.8281H46.4844V51.3672V50.7031H53.8281H61.1719V51.3672ZM61.1719 54.375V55H53.8281H46.4844V54.375V53.75H53.8281H61.1719V54.375ZM61.1719 57.4219V58.0469H53.8281H46.4844V57.4219V56.7969H53.8281H61.1719V57.4219ZM68.5938 62.9922C68.5938 63.5 68.3906 64.1797 68.0312 64.9219C67.4453 66.125 66.2109 67.125 64.8047 67.5469C64.3672 67.6797 63.7422 67.6875 55.9375 67.7031C48.5 67.7188 47.5938 67.7109 47.9922 67.6094C48.7891 67.4141 49.6641 66.9062 50.3203 66.2422C50.8125 65.7578 50.9844 65.5156 51.2734 64.9141C51.6406 64.1406 51.7969 63.5859 51.7969 63.0078V62.6562H60.1953H68.5938V62.9922Z" fill="white"/>
<path d="M52.8363 39.5158C50.8051 40.2424 50.2191 42.8752 51.7582 44.4143C53.2035 45.8674 55.6332 45.4612 56.5394 43.6096C56.7426 43.2033 56.7582 43.0862 56.7582 42.3049C56.7582 41.4768 56.7504 41.4299 56.4926 40.9533C56.1801 40.383 55.7269 39.9377 55.141 39.6408C54.5863 39.3518 53.4613 39.2893 52.8363 39.5158Z" fill="white"/>
</g>
<defs>
<clipPath id="clip0_10247_19268">
<rect width="40" height="40" fill="white" transform="translate(30 30)"/>
</clipPath>
</defs>
</svg>
