<svg width="25" height="24" viewBox="0 0 25 24" fill="none" xmlns="http://www.w3.org/2000/svg">
<path d="M21.3256 6.48469L18.0153 3.17438C17.8417 2.99968 17.6351 2.86116 17.4076 2.76686C17.18 2.67255 16.936 2.62434 16.6897 2.62501H5C4.50272 2.62501 4.02581 2.82255 3.67417 3.17418C3.32254 3.52581 3.125 4.00273 3.125 4.50001V19.5C3.125 19.9973 3.32254 20.4742 3.67417 20.8258C4.02581 21.1775 4.50272 21.375 5 21.375H20C20.4973 21.375 20.9742 21.1775 21.3258 20.8258C21.6775 20.4742 21.875 19.9973 21.875 19.5V7.81032C21.8757 7.564 21.8275 7.32 21.7332 7.09246C21.6388 6.86491 21.5003 6.65833 21.3256 6.48469ZM15.875 19.125H9.125V15H15.875V19.125ZM19.625 19.125H18.125V14.625C18.125 14.1277 17.9275 13.6508 17.5758 13.2992C17.2242 12.9476 16.7473 12.75 16.25 12.75H8.75C8.25272 12.75 7.77581 12.9476 7.42417 13.2992C7.07254 13.6508 6.875 14.1277 6.875 14.625V19.125H5.375V4.87501H16.5312L19.625 7.96876V19.125ZM15.875 7.87501C15.875 8.17338 15.7565 8.45952 15.5455 8.6705C15.3345 8.88148 15.0484 9.00001 14.75 9.00001H9.5C9.20163 9.00001 8.91548 8.88148 8.7045 8.6705C8.49353 8.45952 8.375 8.17338 8.375 7.87501C8.375 7.57664 8.49353 7.29049 8.7045 7.07951C8.91548 6.86853 9.20163 6.75001 9.5 6.75001H14.75C15.0484 6.75001 15.3345 6.86853 15.5455 7.07951C15.7565 7.29049 15.875 7.57664 15.875 7.87501Z" fill="white"/>
</svg>
