<svg width="16" height="20" viewBox="0 0 24 24" fill="none" xmlns="http://www.w3.org/2000/svg">
<path d="M8 3.02878V7H15V3.36922M19 9.68375V16.2C19 17.8802 19 18.7202 18.673 19.362C18.3854 19.9265 17.9265 20.3854 17.362 20.673C16.7202 21 15.8802 21 14.2 21H9.8C8.11984 21 7.27976 21 6.63803 20.673C6.07354 20.3854 5.6146 19.9265 5.32698 19.362C5 18.7202 5 17.8802 5 16.2V7.8C5 6.11984 5 5.27976 5.32698 4.63803C5.6146 4.07354 6.07354 3.6146 6.63803 3.32698C7.27976 3 8.11984 3 9.8 3H12.693C13.5402 3 13.9638 3 14.3549 3.10774C14.7014 3.20319 15.0279 3.36012 15.3189 3.57105C15.6473 3.80914 15.9119 4.13991 16.4412 4.80146L17.9482 6.68521C18.338 7.17252 18.5329 7.41617 18.6715 7.68749C18.7945 7.9282 18.8844 8.18443 18.9387 8.44921C19 8.74767 19 9.0597 19 9.68375ZM15 15C15 16.6569 13.6569 18 12 18C10.3431 18 9 16.6569 9 15C9 13.3431 10.3431 12 12 12C13.6569 12 15 13.3431 15 15Z" stroke="#3393A1" stroke-width="2" stroke-linecap="round" stroke-linejoin="round"/>
</svg>